REM DIRINDEX 1\2,1\3,1\4,1\5
REM DIRNAME cjc044,folder01,folder02,folder03,folder04
TITLE ""
FILE "1800_160.mp3" MP3
  TRACK 01 AUDIO
    TITLE "2:cjc044_5184"
    INDEX 01 00:00:00
  TRACK 02 AUDIO
    TITLE "0:"
    INDEX 01 00:01:05
  TRACK 03 AUDIO
    TITLE "3:cjc044_5185"
    INDEX 01 00:01:50
  TRACK 04 AUDIO
    TITLE "0:"
    INDEX 01 00:02:71
  TRACK 05 AUDIO
    TITLE "4:cjc044_5186"
    INDEX 01 00:03:39
  TRACK 06 AUDIO
    TITLE "0:"
    INDEX 01 00:04:58
  TRACK 07 AUDIO
    TITLE "2:cjc044_5187"
    INDEX 01 00:06:28
  TRACK 08 AUDIO
    TITLE "0:"
    INDEX 01 00:07:58
  TRACK 09 AUDIO
    TITLE "3:cjc044_5188"
    INDEX 01 00:08:34
  TRACK 10 AUDIO
    TITLE "0:"
    INDEX 01 00:09:59
  TRACK 11 AUDIO
    TITLE "4:cjc044_5189"
    INDEX 01 00:10:33
  TRACK 12 AUDIO
    TITLE "0:"
    INDEX 01 00:11:68
  TRACK 13 AUDIO
    TITLE "2:cjc044_5190"
    INDEX 01 00:13:39
  TRACK 14 AUDIO
    TITLE "0:"
    INDEX 01 00:15:05
  TRACK 15 AUDIO
    TITLE "3:cjc044_5191"
    INDEX 01 00:15:52
  TRACK 16 AUDIO
    TITLE "0:"
    INDEX 01 00:17:31
  TRACK 17 AUDIO
    TITLE "4:cjc044_5192"
    INDEX 01 00:17:74
  TRACK 18 AUDIO
    TITLE "0:"
    INDEX 01 00:19:40
  TRACK 19 AUDIO
    TITLE "2:cjc044_5193"
    INDEX 01 00:21:15
  TRACK 20 AUDIO
    TITLE "0:"
    INDEX 01 00:22:50
  TRACK 21 AUDIO
    TITLE "3:cjc044_5194"
    INDEX 01 00:23:24
  TRACK 22 AUDIO
    TITLE "0:"
    INDEX 01 00:24:47
  TRACK 23 AUDIO
    TITLE "4:cjc044_5195"
    INDEX 01 00:25:17
  TRACK 24 AUDIO
    TITLE "0:"
    INDEX 01 00:26:52
  TRACK 25 AUDIO
    TITLE "2:cjc044_5196"
    INDEX 01 00:28:27
  TRACK 26 AUDIO
    TITLE "0:"
    INDEX 01 00:29:58
  TRACK 27 AUDIO
    TITLE "3:cjc044_5197"
    INDEX 01 00:30:28
  TRACK 28 AUDIO
    TITLE "0:"
    INDEX 01 00:31:22
  TRACK 29 AUDIO
    TITLE "4:cjc044_5198"
    INDEX 01 00:31:71
  TRACK 30 AUDIO
    TITLE "0:"
    INDEX 01 00:33:22
  TRACK 31 AUDIO
    TITLE "2:cjc044_5199"
    INDEX 01 00:34:73
  TRACK 32 AUDIO
    TITLE "0:"
    INDEX 01 00:36:25
  TRACK 33 AUDIO
    TITLE "3:cjc044_5200"
    INDEX 01 00:36:70
  TRACK 34 AUDIO
    TITLE "0:"
    INDEX 01 00:37:73
  TRACK 35 AUDIO
    TITLE "4:cjc044_5201"
    INDEX 01 00:38:47
  TRACK 36 AUDIO
    TITLE "0:"
    INDEX 01 00:39:74
  TRACK 37 AUDIO
    TITLE "2:cjc044_5202"
    INDEX 01 00:41:45
  TRACK 38 AUDIO
    TITLE "0:"
    INDEX 01 00:42:65
  TRACK 39 AUDIO
    TITLE "3:cjc044_5203"
    INDEX 01 00:43:39
  TRACK 40 AUDIO
    TITLE "0:"
    INDEX 01 00:44:52
  TRACK 41 AUDIO
    TITLE "4:cjc044_5204"
    INDEX 01 00:45:24
  TRACK 42 AUDIO
    TITLE "0:"
    INDEX 01 00:46:49
  TRACK 43 AUDIO
    TITLE "2:cjc044_5205"
    INDEX 01 00:48:24
  TRACK 44 AUDIO
    TITLE "0:"
    INDEX 01 00:49:49
  TRACK 45 AUDIO
    TITLE "3:cjc044_5206"
    INDEX 01 00:50:23
  TRACK 46 AUDIO
    TITLE "0:"
    INDEX 01 00:51:22
  TRACK 47 AUDIO
    TITLE "4:cjc044_5207"
    INDEX 01 00:51:71
  TRACK 48 AUDIO
    TITLE "0:"
    INDEX 01 00:53:23
  TRACK 49 AUDIO
    TITLE "2:cjc044_5208"
    INDEX 01 00:54:72
  TRACK 50 AUDIO
    TITLE "0:"
    INDEX 01 00:56:16
  TRACK 51 AUDIO
    TITLE "3:cjc044_5209"
    INDEX 01 00:56:65
  TRACK 52 AUDIO
    TITLE "0:"
    INDEX 01 00:58:11
  TRACK 53 AUDIO
    TITLE "4:cjc044_5210"
    INDEX 01 00:58:60
  TRACK 54 AUDIO
    TITLE "0:"
    INDEX 01 01:00:04
  TRACK 55 AUDIO
    TITLE "2:cjc044_5211"
    INDEX 01 01:01:50
  TRACK 56 AUDIO
    TITLE "0:"
    INDEX 01 01:03:16
  TRACK 57 AUDIO
    TITLE "3:cjc044_5212"
    INDEX 01 01:03:65
  TRACK 58 AUDIO
    TITLE "0:"
    INDEX 01 01:05:19
  TRACK 59 AUDIO
    TITLE "4:cjc044_5213"
    INDEX 01 01:05:66
  TRACK 60 AUDIO
    TITLE "0:"
    INDEX 01 01:07:31
  TRACK 61 AUDIO
    TITLE "2:cjc044_5214"
    INDEX 01 01:09:05
  TRACK 62 AUDIO
    TITLE "0:"
    INDEX 01 01:10:08
  TRACK 63 AUDIO
    TITLE "3:cjc044_5215"
    INDEX 01 01:10:55
  TRACK 64 AUDIO
    TITLE "0:"
    INDEX 01 01:12:58
  TRACK 65 AUDIO
    TITLE "4:cjc044_5216"
    INDEX 01 01:13:30
  TRACK 66 AUDIO
    TITLE "0:"
    INDEX 01 01:14:35
  TRACK 67 AUDIO
    TITLE "2:cjc044_5217"
    INDEX 01 01:16:09
  TRACK 68 AUDIO
    TITLE "0:"
    INDEX 01 01:17:10
  TRACK 69 AUDIO
    TITLE "3:cjc044_5218"
    INDEX 01 01:17:61
  TRACK 70 AUDIO
    TITLE "0:"
    INDEX 01 01:18:56
  TRACK 71 AUDIO
    TITLE "4:cjc044_5219"
    INDEX 01 01:19:25
  TRACK 72 AUDIO
    TITLE "0:"
    INDEX 01 01:20:28
  TRACK 73 AUDIO
    TITLE "2:cjc044_5220"
    INDEX 01 01:22:13
  TRACK 74 AUDIO
    TITLE "0:"
    INDEX 01 01:23:34
  TRACK 75 AUDIO
    TITLE "3:cjc044_5221"
    INDEX 01 01:24:06
  TRACK 76 AUDIO
    TITLE "0:"
    INDEX 01 01:26:07
  TRACK 77 AUDIO
    TITLE "4:cjc044_5222"
    INDEX 01 01:26:56
  TRACK 78 AUDIO
    TITLE "0:"
    INDEX 01 01:28:04
  TRACK 79 AUDIO
    TITLE "2:cjc044_5223"
    INDEX 01 01:29:52
  TRACK 80 AUDIO
    TITLE "0:"
    INDEX 01 01:31:04
  TRACK 81 AUDIO
    TITLE "3:cjc044_5224"
    INDEX 01 01:31:53
  TRACK 82 AUDIO
    TITLE "0:"
    INDEX 01 01:32:64
  TRACK 83 AUDIO
    TITLE "4:cjc044_5225"
    INDEX 01 01:33:38
  TRACK 84 AUDIO
    TITLE "0:"
    INDEX 01 01:34:67
  TRACK 85 AUDIO
    TITLE "2:cjc044_5226"
    INDEX 01 01:36:45
  TRACK 86 AUDIO
    TITLE "0:"
    INDEX 01 01:37:58
  TRACK 87 AUDIO
    TITLE "3:cjc044_5227"
    INDEX 01 01:38:32
  TRACK 88 AUDIO
    TITLE "0:"
    INDEX 01 01:39:61
  TRACK 89 AUDIO
    TITLE "4:cjc044_5228"
    INDEX 01 01:40:29
  TRACK 90 AUDIO
    TITLE "0:"
    INDEX 01 01:41:44
  TRACK 91 AUDIO
    TITLE "2:cjc044_5229"
    INDEX 01 01:43:19
  TRACK 92 AUDIO
    TITLE "0:"
    INDEX 01 01:44:46
  TRACK 93 AUDIO
    TITLE "3:cjc044_5230"
    INDEX 01 01:45:18
  TRACK 94 AUDIO
    TITLE "0:"
    INDEX 01 01:46:14
  TRACK 95 AUDIO
    TITLE "4:cjc044_5231"
    INDEX 01 01:46:61
  TRACK 96 AUDIO
    TITLE "0:"
    INDEX 01 01:48:11
  TRACK 97 AUDIO
    TITLE "2:cjc044_5232"
    INDEX 01 01:49:65
  TRACK 98 AUDIO
    TITLE "0:"
    INDEX 01 01:51:13
  TRACK 99 AUDIO
    TITLE "3:cjc044_5233"
    INDEX 01 01:51:64
  TRACK 100 AUDIO
    TITLE "0:"
    INDEX 01 01:53:20
  TRACK 101 AUDIO
    TITLE "4:cjc044_5234"
    INDEX 01 01:53:65
  TRACK 102 AUDIO
    TITLE "0:"
    INDEX 01 01:55:15
